<?xml version="1.0" encoding="UTF-8" standalone="no"?>
<!-- Created with Inkscape (http://www.inkscape.org/) -->

<svg
   xmlns:dc="http://purl.org/dc/elements/1.1/"
   xmlns:cc="http://creativecommons.org/ns#"
   xmlns:rdf="http://www.w3.org/1999/02/22-rdf-syntax-ns#"
   xmlns:svg="http://www.w3.org/2000/svg"
   xmlns="http://www.w3.org/2000/svg"
   xmlns:sodipodi="http://sodipodi.sourceforge.net/DTD/sodipodi-0.dtd"
   xmlns:inkscape="http://www.inkscape.org/namespaces/inkscape"
   id="svg3153"
   version="1.1"
   inkscape:version="0.48.2 r9819"
   width="128"
   height="128"
   xml:space="preserve"
   sodipodi:docname="A_fill_smaller.svg"><metadata
     id="metadata3159"><rdf:RDF><cc:Work
         rdf:about=""><dc:format>image/svg+xml</dc:format><dc:type
           rdf:resource="http://purl.org/dc/dcmitype/StillImage" /><dc:title></dc:title></cc:Work></rdf:RDF></metadata><defs
     id="defs3157"><clipPath
       clipPathUnits="userSpaceOnUse"
       id="clipPath3167"><path
         d="m 0,841.89 595.28,0 L 595.28,0 0,0 0,841.89 z"
         id="path3169"
         inkscape:connector-curvature="0" /></clipPath></defs><sodipodi:namedview
     pagecolor="#ffffff"
     bordercolor="#666666"
     borderopacity="1"
     objecttolerance="10"
     gridtolerance="10"
     guidetolerance="10"
     inkscape:pageopacity="0"
     inkscape:pageshadow="2"
     inkscape:window-width="1920"
     inkscape:window-height="1155"
     id="namedview3155"
     showgrid="false"
     fit-margin-top="0"
     fit-margin-left="0"
     fit-margin-right="0"
     fit-margin-bottom="0"
     inkscape:snap-bbox="true"
     inkscape:bbox-paths="true"
     inkscape:zoom="7.1762341"
     inkscape:cx="73.104293"
     inkscape:cy="66.784109"
     inkscape:window-x="1916"
     inkscape:window-y="-4"
     inkscape:window-maximized="1"
     inkscape:current-layer="g3161" /><g
     id="g3161"
     inkscape:groupmode="layer"
     inkscape:label="SOLID ANGLE_logotipo"
     transform="matrix(1.25,0,0,-1.25,-350.29793,611.26625)"><path
       d="m 339.07682,473.10521 c -1.51447,3.84521 -4.3317,6.04797 -7.72355,6.04797 -3.38603,0 -6.19629,-2.20276 -7.72005,-6.04436 L 301.1477,417.23666 c -0.61184,-1.5162 -0.3571,-3.84762 0.57229,-5.19308 0.0803,-0.11062 1.99835,-2.87128 4.17001,-5.02234 4.80512,-4.75541 10.76411,-8.04872 17.2256,-9.52885 2.61018,-0.59278 5.26341,-0.89818 7.88988,-0.89818 0.0698,0 0.13842,0.002 0.21054,0.005 l 0.13725,0.008 0.14772,-0.008 c 0.0674,-0.002 0.14075,-0.005 0.20822,-0.005 2.62414,0 5.27737,0.3054 7.88639,0.89818 6.46265,1.48013 12.41931,4.77344 17.22443,9.52885 2.17632,2.15106 4.08976,4.91172 4.17118,5.02234 0.92939,1.34065 1.18645,3.67207 0.57461,5.19308 z"
       style="fill:#ffffff;fill-opacity:1;fill-rule:nonzero;stroke:#ffffff;stroke-opacity:0.49735451;stroke-width:9.59999999999999964;stroke-miterlimit:4;stroke-dasharray:none"
       id="path4742"
       inkscape:connector-curvature="0"
       sodipodi:nodetypes="cscccccscccsccccc" /><path
       sodipodi:nodetypes="ccsccccccccccccccscccccscccsccccc"
       inkscape:connector-curvature="0"
       id="path3173"
       style="fill:#000000;fill-opacity:1;fill-rule:nonzero;stroke:none"
       d="m 319.66094,432.56579 -5.21339,-12.95323 c 4.87956,3.91254 10.72572,5.98184 16.91619,5.98184 6.18,0 12.01803,-2.06689 16.89176,-5.96501 l -5.20757,12.94241 c -1.29695,0.46412 -2.54389,0.83926 -3.79314,1.12182 -5.21224,1.19517 -10.57103,1.19517 -15.7786,0 -1.25159,-0.28616 -2.51248,-0.6613 -3.81525,-1.12783 m 11.69233,-26.97057 c -8.12019,0.002 -15.77976,3.66726 -21.04899,10.07113 l 5.91945,14.70991 -0.36059,0.15511 0.36291,-0.15511 15.13187,37.59239 21.0455,-52.3023 c -5.26573,-6.40387 -12.92181,-10.06872 -21.05015,-10.07113 m 7.72355,67.50999 c -1.51447,3.84521 -4.3317,6.04797 -7.72355,6.04797 -3.38603,0 -6.19629,-2.20276 -7.72005,-6.04436 L 301.1477,417.23666 c -0.61184,-1.5162 -0.3571,-3.84762 0.57229,-5.19308 0.0803,-0.11062 1.99835,-2.87128 4.17001,-5.02234 4.80512,-4.75541 10.76411,-8.04872 17.2256,-9.52885 2.61018,-0.59278 5.26341,-0.89818 7.88988,-0.89818 0.0698,0 0.13842,0.002 0.21054,0.005 l 0.13725,0.008 0.14772,-0.008 c 0.0674,-0.002 0.14075,-0.005 0.20822,-0.005 2.62414,0 5.27737,0.3054 7.88639,0.89818 6.46265,1.48013 12.41931,4.77344 17.22443,9.52885 2.17632,2.15106 4.08976,4.91172 4.17118,5.02234 0.92939,1.34065 1.18645,3.67207 0.57461,5.19308 z" /></g></svg>