<?xml version="1.0" encoding="UTF-8" standalone="no"?>
<!-- Created with Inkscape (http://www.inkscape.org/) -->

<svg
   xmlns:dc="http://purl.org/dc/elements/1.1/"
   xmlns:cc="http://creativecommons.org/ns#"
   xmlns:rdf="http://www.w3.org/1999/02/22-rdf-syntax-ns#"
   xmlns:svg="http://www.w3.org/2000/svg"
   xmlns="http://www.w3.org/2000/svg"
   xmlns:sodipodi="http://sodipodi.sourceforge.net/DTD/sodipodi-0.dtd"
   xmlns:inkscape="http://www.inkscape.org/namespaces/inkscape"
   width="128"
   height="128"
   id="svg2"
   version="1.1"
   inkscape:version="0.47 r22583"
   sodipodi:docname="SHOP_arnold_vopnet.svg">
  <defs
     id="defs4">
    <inkscape:perspective
       sodipodi:type="inkscape:persp3d"
       inkscape:vp_x="0 : 64 : 1"
       inkscape:vp_y="0 : 1000 : 0"
       inkscape:vp_z="128 : 64 : 1"
       inkscape:persp3d-origin="64 : 42.666667 : 1"
       id="perspective9" />
  </defs>
  <sodipodi:namedview
     id="base"
     pagecolor="#ffffff"
     bordercolor="#666666"
     borderopacity="1.0"
     inkscape:pageopacity="0"
     inkscape:pageshadow="2"
     inkscape:zoom="4.59"
     inkscape:cx="34.899696"
     inkscape:cy="12.571414"
     inkscape:document-units="px"
     inkscape:current-layer="layer1"
     showgrid="false"
     fit-margin-top="0"
     fit-margin-left="0"
     fit-margin-right="0"
     fit-margin-bottom="0"
     inkscape:window-width="1920"
     inkscape:window-height="1035"
     inkscape:window-x="0"
     inkscape:window-y="1"
     inkscape:window-maximized="1"
     showborder="false"
     inkscape:showpageshadow="false" />
  <metadata
     id="metadata7">
    <rdf:RDF>
      <cc:Work
         rdf:about="">
        <dc:format>image/svg+xml</dc:format>
        <dc:type
           rdf:resource="http://purl.org/dc/dcmitype/StillImage" />
        <dc:title />
      </cc:Work>
    </rdf:RDF>
  </metadata>
  <g
     inkscape:label="Layer 1"
     inkscape:groupmode="layer"
     id="layer1"
     transform="translate(-281.71429,-416.93359)">
    <path
       style="fill:#ffffff"
       d="m 344.91168,417.24815 c -11.20334,-0.0365 -16.79814,11.67211 -19.71724,20.8184 -10.39235,24.68505 -22.17755,49.11959 -29.83169,74.71541 2.02794,13.16419 15.06324,20.35025 25.52784,26.51302 25.31034,11.82097 59.61936,3.70064 74.03363,-20.89168 4.18719,-10.3555 -4.29666,-19.73388 -6.92876,-29.30285 -9.36421,-22.39634 -16.87987,-46.03579 -29.63893,-66.75253 -3.58908,-3.34841 -8.49138,-5.37852 -13.44485,-5.09977 z"
       id="path2984"
       inkscape:connector-curvature="0"
       sodipodi:nodetypes="cccccccc" />
    <path
       style="fill:#000000"
       d="m 329.54346,534.85934 c -11.9501,-3.86792 -26.9465,-16.24201 -26.9465,-22.23458 0,-3.04833 33.13509,-82.16461 35.43879,-84.61678 4.37741,-4.65955 11.59897,-4.30443 16.12777,0.79307 2.83828,3.1947 34.6707,80.36065 34.66809,84.04001 -0.002,2.48758 -1.10482,4.12701 -6.26095,9.30541 -10.60203,10.64783 -21.57981,15.0605 -37.28406,14.98685 -6.73219,-0.0315 -10.4937,-0.5749 -15.74314,-2.27398 z m 32.3963,-13.11587 c 3.31486,-1.56495 7.8204,-4.47036 10.01233,-6.45645 l 3.98532,-3.61107 -14.35385,-34.50944 c -7.89463,-18.98019 -14.70547,-35.13776 -15.13524,-35.9057 -0.54597,-0.9756 -5.05058,8.89381 -14.95194,32.7591 -7.79381,18.78545 -14.4062,35.05648 -14.69422,36.15783 -0.57491,2.1985 1.87949,4.94376 8.10086,9.06086 10.05249,6.65243 25.97105,7.72903 37.03674,2.50487 z m 6.00116,-17.06359 c -1.15043,-1.86142 -10.30507,-5.4329 -16.43682,-6.41244 -7.51041,-1.1998 -14.87486,-0.0229 -22.66336,3.62177 -6.85999,3.21019 -6.74885,3.60299 -2.07954,-7.34893 2.38272,-5.58872 2.88042,-6.14043 6.59212,-7.30754 5.17717,-1.62792 18.46539,-1.78628 24.41827,-0.291 l 4.64052,1.16565 3.47603,8.45842 c 1.91182,4.65214 3.30771,8.62675 3.10199,8.83247 -0.20573,0.20572 -0.67788,-0.11756 -1.04921,-0.7184 z"
       id="path3060"
       inkscape:connector-curvature="0" />
  </g>
</svg>
