<?xml version="1.0" encoding="UTF-8" standalone="no"?>
<!-- Created with Inkscape (http://www.inkscape.org/) -->

<svg
   xmlns:dc="http://purl.org/dc/elements/1.1/"
   xmlns:cc="http://creativecommons.org/ns#"
   xmlns:rdf="http://www.w3.org/1999/02/22-rdf-syntax-ns#"
   xmlns:svg="http://www.w3.org/2000/svg"
   xmlns="http://www.w3.org/2000/svg"
   xmlns:sodipodi="http://sodipodi.sourceforge.net/DTD/sodipodi-0.dtd"
   xmlns:inkscape="http://www.inkscape.org/namespaces/inkscape"
   width="128"
   height="128"
   id="svg2"
   version="1.1"
   inkscape:version="0.47 r22583"
   sodipodi:docname="icon.svg"
   style="display:inline">
  <defs
     id="defs4">
    <inkscape:perspective
       sodipodi:type="inkscape:persp3d"
       inkscape:vp_x="0 : 526.18109 : 1"
       inkscape:vp_y="0 : 1000 : 0"
       inkscape:vp_z="744.09448 : 526.18109 : 1"
       inkscape:persp3d-origin="372.04724 : 350.78739 : 1"
       id="perspective10" />
  </defs>
  <sodipodi:namedview
     id="base"
     pagecolor="#ffffff"
     bordercolor="#666666"
     borderopacity="1.0"
     inkscape:pageopacity="0.0"
     inkscape:pageshadow="2"
     inkscape:zoom="4"
     inkscape:cx="19.596014"
     inkscape:cy="63.755557"
     inkscape:document-units="px"
     inkscape:current-layer="g2873"
     showgrid="false"
     inkscape:snap-grids="true"
     inkscape:snap-page="true"
     inkscape:window-width="1096"
     inkscape:window-height="821"
     inkscape:window-x="525"
     inkscape:window-y="26"
     inkscape:window-maximized="0" />
  <metadata
     id="metadata7">
    <rdf:RDF>
      <cc:Work
         rdf:about="">
        <dc:format>image/svg+xml</dc:format>
        <dc:type
           rdf:resource="http://purl.org/dc/dcmitype/StillImage" />
        <dc:title></dc:title>
      </cc:Work>
    </rdf:RDF>
  </metadata>
  <g
     transform="translate(0,-924.36218)"
     id="g2873"
     inkscape:groupmode="layer"
     inkscape:label="ln"
     style="display:inline">
    <flowRoot
       style="font-size:40px;font-style:normal;font-weight:normal;fill:#000000;fill-opacity:1;stroke:none;font-family:Bitstream Vera Sans"
       id="flowRoot2875"
       xml:space="preserve"><flowRegion
         id="flowRegion2877"><rect
           y="72.5"
           x="-3.75"
           height="44.75"
           width="161.75"
           id="rect2879" /></flowRegion><flowPara
         id="flowPara2881" /></flowRoot>    <flowRoot
       style="font-size:40px;font-style:normal;font-weight:normal;fill:#000000;fill-opacity:1;stroke:none;font-family:Bitstream Vera Sans"
       id="flowRoot2883"
       xml:space="preserve"><flowRegion
         id="flowRegion2885"><rect
           y="-0.50000006"
           x="0.25"
           height="128.5"
           width="127.5"
           id="rect2887" /></flowRegion><flowPara
         id="flowPara2889" /></flowRoot>    <g
       transform="matrix(1.9230158,0,0,1.9230158,-102.64969,851.6242)"
       style="font-size:40px;font-style:normal;font-weight:normal;fill:#000000;fill-opacity:1;stroke:none;font-family:Bitstream Vera Sans"
       id="flowRoot2891">
      <path
         d="m 79.102781,83.358322 -10.676381,0 0,-1.46495 c 0.34034,-0.02959 0.702878,-0.05919 1.087614,-0.08879 0.384732,-0.04439 0.702878,-0.103581 0.954438,-0.17757 0.414325,-0.133176 0.725072,-0.362536 0.932241,-0.688083 0.20716,-0.340339 0.310742,-0.776864 0.310747,-1.309577 l 0,-25.348081 c -5e-6,-0.53268 -0.118384,-1.028395 -0.35514,-1.487147 -0.221966,-0.473488 -0.517915,-0.843425 -0.887848,-1.109811 -0.266358,-0.177538 -0.754674,-0.34031 -1.464951,-0.488316 -0.71028,-0.147943 -1.279982,-0.236728 -1.709109,-0.266355 l 0,-1.420558 8.234797,-0.510513 0.310748,0.332943 0,30.031484 c -9e-6,0.517915 0.09617,0.947041 0.28855,1.28738 0.192359,0.325547 0.503105,0.577104 0.932242,0.754672 0.325534,0.147976 0.643679,0.258957 0.954437,0.332943 0.325533,0.07399 0.688071,0.12578 1.087615,0.155374 l 0,1.46495"
         style="font-size:45.45785522px;font-variant:normal;font-stretch:normal;text-align:start;line-height:125%;writing-mode:lr-tb;text-anchor:start;font-family:Georgia;-inkscape-font-specification:Georgia"
         id="path3048" />
      <path
         d="m 106.02679,83.358322 -10.72077,0 0,-1.46495 c 0.340326,-0.02959 0.710263,-0.05919 1.109811,-0.08879 0.414313,-0.02959 0.754654,-0.08878 1.021026,-0.17757 0.414312,-0.133176 0.71766,-0.362536 0.910045,-0.688083 0.207146,-0.340339 0.310728,-0.776864 0.310747,-1.309577 l 0,-11.253482 c -1.9e-5,-1.553719 -0.369955,-2.752314 -1.109811,-3.595788 -0.725093,-0.843437 -1.612941,-1.265164 -2.663546,-1.265184 -0.784281,2e-5 -1.501958,0.125798 -2.153034,0.377335 -0.6511,0.236779 -1.228202,0.532729 -1.731305,0.887849 -0.488327,0.34036 -0.880459,0.710297 -1.176399,1.109811 -0.281162,0.384752 -0.488326,0.695498 -0.621494,0.932241 l 0,12.585256 c -9e-6,0.503118 0.103573,0.917447 0.310747,1.242988 0.207155,0.325547 0.517902,0.577104 0.932241,0.754672 0.310737,0.147976 0.643679,0.258957 0.99883,0.332943 0.369925,0.07399 0.747261,0.12578 1.132007,0.155374 l 0,1.46495 -10.720774,0 0,-1.46495 c 0.340341,-0.02959 0.688081,-0.05919 1.043223,-0.08879 0.369934,-0.02959 0.688079,-0.08878 0.954437,-0.17757 0.414326,-0.133176 0.717674,-0.362536 0.910045,-0.688083 0.20716,-0.340339 0.310742,-0.776864 0.310747,-1.309577 l 0,-13.517497 c -5e-6,-0.503096 -0.110986,-0.961818 -0.332943,-1.376165 -0.207169,-0.429108 -0.503118,-0.776849 -0.887849,-1.043223 -0.281155,-0.177549 -0.614098,-0.303328 -0.99883,-0.377335 -0.384736,-0.08877 -0.799065,-0.147955 -1.242988,-0.17757 l 0,-1.442754 7.28036,-0.488317 0.310747,0.310747 0,3.085274 0.110981,0 c 0.35513,-0.35512 0.799054,-0.776848 1.331773,-1.265184 0.532698,-0.503094 1.035812,-0.910024 1.509343,-1.220792 0.547494,-0.355118 1.198583,-0.651067 1.953267,-0.887849 0.754657,-0.236737 1.605511,-0.355117 2.552565,-0.355139 2.101224,2.2e-5 3.654961,0.658509 4.661201,1.975463 1.02101,1.302198 1.53152,3.0409 1.53154,5.216111 l 0,11.386661 c -2e-5,0.517915 0.0888,0.939642 0.26636,1.265184 0.17755,0.310749 0.48089,0.554907 0.91004,0.732475 0.35512,0.147977 0.65847,0.251559 0.91005,0.310747 0.26633,0.05919 0.62887,0.103584 1.08761,0.133178 l 0,1.46495"
         style="font-size:45.45785522px;font-variant:normal;font-stretch:normal;text-align:start;line-height:125%;writing-mode:lr-tb;text-anchor:start;font-family:Georgia;-inkscape-font-specification:Georgia"
         id="path3050" />
    </g>
  </g>
</svg>
