<?xml version="1.0" encoding="UTF-8" standalone="no"?>
<!-- Created with Inkscape (http://www.inkscape.org/) -->

<svg
   xmlns:dc="http://purl.org/dc/elements/1.1/"
   xmlns:cc="http://creativecommons.org/ns#"
   xmlns:rdf="http://www.w3.org/1999/02/22-rdf-syntax-ns#"
   xmlns:svg="http://www.w3.org/2000/svg"
   xmlns="http://www.w3.org/2000/svg"
   xmlns:sodipodi="http://sodipodi.sourceforge.net/DTD/sodipodi-0.dtd"
   xmlns:inkscape="http://www.inkscape.org/namespaces/inkscape"
   width="128"
   height="128"
   id="svg2"
   version="1.1"
   inkscape:version="0.47 r22583"
   sodipodi:docname="VOP_log.svg"
   style="display:inline">
  <defs
     id="defs4">
    <inkscape:perspective
       sodipodi:type="inkscape:persp3d"
       inkscape:vp_x="0 : 526.18109 : 1"
       inkscape:vp_y="0 : 1000 : 0"
       inkscape:vp_z="744.09448 : 526.18109 : 1"
       inkscape:persp3d-origin="372.04724 : 350.78739 : 1"
       id="perspective10" />
  </defs>
  <sodipodi:namedview
     id="base"
     pagecolor="#ffffff"
     bordercolor="#666666"
     borderopacity="1.0"
     inkscape:pageopacity="0.0"
     inkscape:pageshadow="2"
     inkscape:zoom="4"
     inkscape:cx="44.577618"
     inkscape:cy="63.755557"
     inkscape:document-units="px"
     inkscape:current-layer="g2873"
     showgrid="false"
     inkscape:snap-grids="true"
     inkscape:snap-page="true"
     inkscape:window-width="1096"
     inkscape:window-height="821"
     inkscape:window-x="525"
     inkscape:window-y="26"
     inkscape:window-maximized="0" />
  <metadata
     id="metadata7">
    <rdf:RDF>
      <cc:Work
         rdf:about="">
        <dc:format>image/svg+xml</dc:format>
        <dc:type
           rdf:resource="http://purl.org/dc/dcmitype/StillImage" />
        <dc:title />
      </cc:Work>
    </rdf:RDF>
  </metadata>
  <g
     transform="translate(0,-924.36218)"
     id="g2873"
     inkscape:groupmode="layer"
     inkscape:label="ln"
     style="display:inline">
    <flowRoot
       style="font-size:40px;font-style:normal;font-weight:normal;fill:#000000;fill-opacity:1;stroke:none;font-family:Bitstream Vera Sans"
       id="flowRoot2875"
       xml:space="preserve"><flowRegion
         id="flowRegion2877"><rect
           y="72.5"
           x="-3.75"
           height="44.75"
           width="161.75"
           id="rect2879" /></flowRegion><flowPara
         id="flowPara2881" /></flowRoot>    <flowRoot
       style="font-size:40px;font-style:normal;font-weight:normal;fill:#000000;fill-opacity:1;stroke:none;font-family:Bitstream Vera Sans"
       id="flowRoot2883"
       xml:space="preserve"><flowRegion
         id="flowRegion2885"><rect
           y="-0.50000006"
           x="0.25"
           height="128.5"
           width="127.5"
           id="rect2887" /></flowRegion><flowPara
         id="flowPara2889" /></flowRoot>    <path
       id="path2883"
       style="font-size:45.45785522px;font-style:normal;font-variant:normal;font-weight:normal;font-stretch:normal;text-align:start;line-height:125%;writing-mode:lr-tb;text-anchor:start;fill:#000000;fill-opacity:1;stroke:none;font-family:Georgia;-inkscape-font-specification:Georgia"
       d="m 29.276828,1011.9236 -20.5308497,0 0,-2.8172 c 0.6544792,-0.057 1.3516457,-0.1138 2.0914987,-0.1707 0.739846,-0.085 1.351646,-0.1992 1.8354,-0.3415 0.796753,-0.2561 1.394325,-0.6971 1.792714,-1.3232 0.398372,-0.6544 0.597562,-1.4939 0.597571,-2.5183 l 0,-48.74476 c -9e-6,-1.02435 -0.227654,-1.97762 -0.68294,-2.85981 -0.426844,-0.91052 -0.995958,-1.62192 -1.707345,-2.13418 -0.512211,-0.34141 -1.45125,-0.65442 -2.8171243,-0.93904 -1.3658797,-0.2845 -2.4614256,-0.45523 -3.2866436,-0.5122 l 0,-2.73176 15.8356449,-0.98172 0.597573,0.64025 0,57.75102 c -1.7e-5,0.996 0.184937,1.8212 0.554886,2.4757 0.36991,0.626 0.967479,1.1097 1.792716,1.4512 0.626007,0.2846 1.237805,0.498 1.835398,0.6403 0.626005,0.1422 1.323171,0.2418 2.091501,0.2987 l 0,2.8172" />
    <path
       id="path2885"
       style="font-size:45.45785522px;font-style:normal;font-variant:normal;font-weight:normal;font-stretch:normal;text-align:start;line-height:125%;writing-mode:lr-tb;text-anchor:start;fill:#000000;fill-opacity:1;stroke:none;font-family:Georgia;-inkscape-font-specification:Georgia"
       d="m 75.588623,990.45368 c -5.8e-5,2.95942 -0.469562,5.87614 -1.408571,8.75015 -0.939085,2.84557 -2.276504,5.26437 -4.012257,7.25627 -1.963491,2.2764 -4.239951,3.9695 -6.829392,5.0793 -2.589506,1.1098 -5.491993,1.6647 -8.707472,1.6647 -2.674865,0 -5.221655,-0.498 -7.640378,-1.4939 -2.418754,-1.0245 -4.567164,-2.5042 -6.445235,-4.4392 -1.849634,-1.9065 -3.329333,-4.2256 -4.439104,-6.9574 -1.081323,-2.76019 -1.621983,-5.84764 -1.621979,-9.26235 -4e-6,-6.57326 1.906534,-11.9514 5.719613,-16.13443 3.841518,-4.18296 8.86396,-6.27446 15.067338,-6.2745 5.890319,4e-5 10.742026,1.99195 14.555139,5.97571 3.841494,3.95539 5.76224,9.23394 5.762298,15.83565 m -8.835527,0.0854 c -3.4e-5,-2.13416 -0.213453,-4.38216 -0.640255,-6.74402 -0.426871,-2.39025 -1.067125,-4.41061 -1.920765,-6.06108 -0.910618,-1.76423 -2.105758,-3.17278 -3.585429,-4.22569 -1.47973,-1.08128 -3.28667,-1.62194 -5.420827,-1.62198 -2.191117,4e-5 -4.069198,0.5407 -5.634246,1.62198 -1.536628,1.08136 -2.788683,2.56106 -3.756164,4.43911 -0.910598,1.73583 -1.550852,3.71351 -1.920766,5.93303 -0.369936,2.21957 -0.554899,4.36798 -0.554888,6.44523 -1.1e-5,2.73178 0.213407,5.26434 0.640257,7.5977 0.455278,2.30488 1.166672,4.36798 2.134182,6.18918 0.967483,1.8211 2.176852,3.2581 3.628114,4.311 1.479681,1.0244 3.300849,1.5366 5.463511,1.5366 3.556946,0 6.374066,-1.7216 8.451367,-5.1647 2.077238,-3.4431 3.115875,-8.19526 3.115909,-14.25636" />
    <path
       id="path2887"
       style="font-size:45.45785522px;font-style:normal;font-variant:normal;font-weight:normal;font-stretch:normal;text-align:start;line-height:125%;writing-mode:lr-tb;text-anchor:start;fill:#000000;fill-opacity:1;stroke:none;font-family:Georgia;-inkscape-font-specification:Georgia"
       d="m 117.76009,1007.5698 c 1.13819,1.0814 2.03455,2.305 2.68907,3.6708 0.65444,1.3659 0.98168,3.059 0.98174,5.0794 -6e-5,2.0203 -0.44112,3.9127 -1.32321,5.6769 -0.88217,1.7927 -2.21958,3.3436 -4.01226,4.6525 -1.90657,1.3374 -4.18304,2.3761 -6.8294,3.1159 -2.64641,0.7399 -5.91883,1.1098 -9.817242,1.1098 -6.374105,0 -11.140454,-0.939 -14.299027,-2.8171 -3.158592,-1.8496 -4.737887,-4.5672 -4.737887,-8.1526 0,-2.9025 1.138233,-5.1932 3.414699,-6.8721 2.276447,-1.6788 5.178931,-2.5894 8.707473,-2.7317 l 0,-0.5976 c -0.853704,-0.2561 -1.73583,-0.5691 -2.646397,-0.939 -0.910586,-0.3984 -1.693138,-0.8537 -2.347598,-1.3659 -0.739861,-0.5976 -1.337438,-1.2947 -1.792712,-2.0915 -0.455313,-0.8252 -0.68296,-1.8354 -0.68294,-3.0305 -2e-5,-1.5082 0.526425,-2.88829 1.579296,-4.14036 1.081311,-1.28049 2.703279,-2.37604 4.865941,-3.28664 l 0,-0.64026 c -2.731778,-1.28049 -4.85173,-2.91669 -6.359875,-4.90862 -1.508163,-2.02034 -2.262235,-4.35371 -2.262235,-7.00012 0,-3.98378 1.479703,-7.25619 4.439108,-9.81725 2.987848,-2.56098 6.800919,-3.84149 11.439214,-3.84153 1.280502,4e-5 2.546782,0.12809 3.798862,0.38415 1.28048,0.25615 2.5752,0.58339 3.8842,0.98173 l 14.68319,0 0,4.09763 -9.90261,0 0,0.2561 c 1.05283,1.22364 1.83536,2.57529 2.3476,4.05495 0.51217,1.47974 0.76826,2.93098 0.7683,4.35374 -4e-5,3.69927 -1.50818,6.82941 -4.52447,9.39041 -2.98789,2.56104 -6.47372,3.84154 -10.457495,3.84153 l -5.16472,0 c -0.654499,0.22766 -1.337439,0.64027 -2.04882,1.23783 -0.7114,0.59758 -1.067101,1.40857 -1.067101,2.43296 0,1.05285 0.298779,1.86385 0.896356,2.43295 0.597558,0.5407 1.323189,0.9106 2.176874,1.1098 0.825204,0.2277 1.778482,0.3699 2.859813,0.4268 1.109753,0.057 2.247986,0.1 3.414703,0.1281 1.25201,0.029 2.95936,0.1138 5.12203,0.2561 2.19106,0.1423 3.7419,0.2276 4.65252,0.2561 1.30894,0.057 2.6179,0.3699 3.92689,0.939 1.33739,0.5692 2.54677,1.3517 3.62812,2.3476 M 106.2355,982.59988 c -2e-5,-3.32929 -0.68296,-5.97568 -2.04882,-7.93916 -1.33744,-1.99187 -3.22975,-2.98782 -5.67692,-2.98786 -1.337458,4e-5 -2.489902,0.2846 -3.45739,0.85367 -0.939047,0.5407 -1.70735,1.32324 -2.304908,2.34761 -0.569136,0.93907 -0.981738,2.07731 -1.237826,3.41469 -0.227666,1.309 -0.341489,2.66065 -0.34147,4.05495 -1.9e-5,3.15862 0.682921,5.73387 2.048801,7.72575 1.394321,1.99192 3.187033,2.98787 5.378155,2.98785 2.447168,2e-5 4.325248,-0.9817 5.634248,-2.94517 1.3374,-1.99188 2.00611,-4.49599 2.00613,-7.51233 m 8.19527,35.29942 c -4e-5,-1.5935 -0.36997,-2.9025 -1.10979,-3.9269 -0.73988,-1.0244 -1.86388,-1.7216 -3.37201,-2.0915 -0.79678,-0.1138 -2.433,-0.2419 -4.90861,-0.3842 -2.47569,-0.1423 -5.349715,-0.2134 -8.622111,-0.2134 -3.073229,0.5976 -5.264332,1.5935 -6.573291,2.9879 -1.280517,1.4228 -1.920766,3.2439 -1.920766,5.4635 0,0.9959 0.213417,1.9492 0.640269,2.8598 0.426813,0.9106 1.166674,1.75 2.219544,2.5183 0.995949,0.7399 2.333369,1.3374 4.012257,1.7927 1.678889,0.4838 3.72769,0.7256 6.146458,0.7257 4.18298,-10e-5 7.46961,-0.811 9.85994,-2.433 2.41869,-1.5935 3.62807,-4.0265 3.62811,-7.2989" />
  </g>
</svg>
