<?xml version="1.0" encoding="UTF-8" standalone="no"?>
<!-- Created with Inkscape (http://www.inkscape.org/) -->

<svg
   xmlns:dc="http://purl.org/dc/elements/1.1/"
   xmlns:cc="http://creativecommons.org/ns#"
   xmlns:rdf="http://www.w3.org/1999/02/22-rdf-syntax-ns#"
   xmlns:svg="http://www.w3.org/2000/svg"
   xmlns="http://www.w3.org/2000/svg"
   xmlns:sodipodi="http://sodipodi.sourceforge.net/DTD/sodipodi-0.dtd"
   xmlns:inkscape="http://www.inkscape.org/namespaces/inkscape"
   width="128"
   height="128"
   id="svg2"
   version="1.1"
   inkscape:version="0.47 r22583"
   sodipodi:docname="icon.svg"
   style="display:inline">
  <defs
     id="defs4">
    <inkscape:perspective
       sodipodi:type="inkscape:persp3d"
       inkscape:vp_x="0 : 526.18109 : 1"
       inkscape:vp_y="0 : 1000 : 0"
       inkscape:vp_z="744.09448 : 526.18109 : 1"
       inkscape:persp3d-origin="372.04724 : 350.78739 : 1"
       id="perspective10" />
  </defs>
  <sodipodi:namedview
     id="base"
     pagecolor="#ffffff"
     bordercolor="#666666"
     borderopacity="1.0"
     inkscape:pageopacity="0.0"
     inkscape:pageshadow="2"
     inkscape:zoom="4"
     inkscape:cx="19.346014"
     inkscape:cy="63.755557"
     inkscape:document-units="px"
     inkscape:current-layer="g2860"
     showgrid="false"
     inkscape:snap-grids="true"
     inkscape:snap-page="true"
     inkscape:window-width="1920"
     inkscape:window-height="1035"
     inkscape:window-x="0"
     inkscape:window-y="1"
     inkscape:window-maximized="1" />
  <metadata
     id="metadata7">
    <rdf:RDF>
      <cc:Work
         rdf:about="">
        <dc:format>image/svg+xml</dc:format>
        <dc:type
           rdf:resource="http://purl.org/dc/dcmitype/StillImage" />
        <dc:title></dc:title>
      </cc:Work>
    </rdf:RDF>
  </metadata>
  <g
     transform="translate(0,-924.36218)"
     id="g2860"
     inkscape:groupmode="layer"
     inkscape:label="atan2"
     style="display:inline">
    <flowRoot
       style="font-size:40px;font-style:normal;font-weight:normal;fill:#000000;fill-opacity:1;stroke:none;font-family:Bitstream Vera Sans"
       id="flowRoot2862"
       xml:space="preserve"><flowRegion
         id="flowRegion2864"><rect
           y="72.5"
           x="-3.75"
           height="44.75"
           width="161.75"
           id="rect2866" /></flowRegion><flowPara
         id="flowPara2868" /></flowRoot>    <flowRoot
       style="font-size:40px;font-style:normal;font-weight:normal;fill:#000000;fill-opacity:1;stroke:none;font-family:Bitstream Vera Sans"
       id="flowRoot2870"
       xml:space="preserve"><flowRegion
         id="flowRegion2872"><rect
           y="-0.50000006"
           x="0.25"
           height="128.5"
           width="127.5"
           id="rect2874" /></flowRegion><flowPara
         id="flowPara2876" /></flowRoot>    <g
       transform="matrix(1.4515513,0,0,1.4515513,-96.705765,882.58753)"
       style="font-size:40px;font-style:normal;font-weight:normal;fill:#000000;fill-opacity:1;stroke:none;font-family:Bitstream Vera Sans"
       id="flowRoot2878">
      <path
         d="m 88.516896,82.36504 c -0.695503,0.251557 -1.309598,0.451323 -1.842286,0.599298 -0.517932,0.162772 -1.109831,0.244158 -1.775698,0.244158 -1.154221,0 -2.079062,-0.266354 -2.774527,-0.799064 -0.680699,-0.547505 -1.117225,-1.33917 -1.309577,-2.374995 l -0.133177,0 c -0.96185,1.06542 -1.997673,1.879281 -3.107471,2.441584 -1.095024,0.562304 -2.419397,0.843456 -3.973123,0.843456 -1.642526,0 -2.996494,-0.503114 -4.061908,-1.509342 -1.050623,-1.006227 -1.575933,-2.323201 -1.575932,-3.950927 -10e-7,-0.843451 0.118378,-1.598122 0.35514,-2.264015 0.236757,-0.665878 0.591896,-1.265176 1.065418,-1.797893 0.369934,-0.443915 0.85825,-0.836048 1.464951,-1.1764 0.606691,-0.355129 1.176394,-0.636281 1.709109,-0.843456 0.665879,-0.251546 2.012448,-0.717666 4.039711,-1.398362 2.04204,-0.680671 3.418204,-1.21338 4.128497,-1.598128 l 0,-2.197425 c -1.5e-5,-0.192351 -0.04441,-0.562288 -0.133177,-1.109811 -0.074,-0.547489 -0.244173,-1.0654 -0.510513,-1.553735 -0.295963,-0.547488 -0.717691,-1.021007 -1.265185,-1.420558 -0.532721,-0.414309 -1.29479,-0.621474 -2.28621,-0.621495 -0.680694,2.1e-5 -1.316985,0.118401 -1.908875,0.35514 -0.57711,0.221982 -0.98404,0.458742 -1.220792,0.710279 -7e-6,0.295969 0.06658,0.732494 0.199766,1.309577 0.147967,0.577119 0.221954,1.109828 0.221962,1.598128 -8e-6,0.517928 -0.236767,0.991447 -0.710279,1.420558 -0.458728,0.429141 -1.102418,0.643705 -1.931071,0.64369 -0.739878,1.5e-5 -1.287384,-0.258941 -1.64252,-0.776868 -0.340345,-0.532693 -0.510516,-1.124591 -0.510513,-1.775697 -3e-6,-0.680666 0.236757,-1.331755 0.710279,-1.953267 0.488313,-0.621475 1.117205,-1.17638 1.886679,-1.664717 0.66588,-0.414308 1.472342,-0.762048 2.419387,-1.043222 0.94703,-0.295927 1.871872,-0.443902 2.774528,-0.443924 1.242976,2.2e-5 2.323191,0.08881 3.240647,0.266354 0.932227,0.162794 1.775682,0.525332 2.530369,1.087615 0.754655,0.547527 1.324357,1.294799 1.709109,2.241818 0.399514,0.932259 0.599279,2.138252 0.599298,3.617983 -1.9e-5,2.116053 -0.02222,3.995331 -0.06659,5.63784 -0.04441,1.627731 -0.06661,3.410825 -0.06659,5.349289 -1.9e-5,0.577105 0.09616,1.035826 0.288551,1.376165 0.207145,0.340345 0.517892,0.628895 0.932241,0.865653 0.221942,0.133179 0.569682,0.207166 1.043222,0.221962 0.488296,0.0148 0.984011,0.0222 1.487147,0.0222 l 0,1.420558 M 80.770415,70.645437 c -1.257799,0.369948 -2.36021,0.732486 -3.307236,1.087614 -0.947049,0.355151 -1.827498,0.799074 -2.64135,1.331774 -0.739882,0.503123 -1.324382,1.10242 -1.753501,1.797893 -0.429134,0.680691 -0.643697,1.494552 -0.643691,2.441584 -6e-6,1.228195 0.31814,2.130841 0.954438,2.707939 0.651081,0.577104 1.47234,0.865654 2.46378,0.865652 1.05061,2e-6 1.975452,-0.251555 2.774527,-0.754671 0.799051,-0.517909 1.472336,-1.124605 2.019856,-1.82009 l 0.133177,-7.657695"
         style="font-size:45.45785522px;font-variant:normal;font-stretch:normal;text-align:start;line-height:125%;writing-mode:lr-tb;text-anchor:start;font-family:Georgia;-inkscape-font-specification:Georgia"
         id="path2887" />
      <path
         d="m 104.20962,81.810135 c -0.96185,0.399532 -1.87189,0.732475 -2.73013,0.998829 -0.85827,0.281152 -1.908887,0.421728 -3.151865,0.421729 -1.834895,-10e-7 -3.129673,-0.458722 -3.884338,-1.376166 -0.739879,-0.932239 -1.109816,-2.241815 -1.109811,-3.928731 l 0,-14.827074 -3.950927,0 0,-2.130837 4.039712,0 0,-6.814239 4.039711,0 0,6.814239 6.281528,0 0,2.130837 -6.237135,0 0,12.230117 c -9e-6,0.91745 0.02959,1.686918 0.08879,2.308406 0.07398,0.606702 0.236751,1.13941 0.488316,1.598128 0.236751,0.42913 0.59189,0.754674 1.065419,0.976634 0.473509,0.221964 1.109795,0.332945 1.908875,0.332943 0.36992,2e-6 0.91003,-0.02959 1.62032,-0.08879 0.72507,-0.07398 1.23558,-0.16277 1.53154,-0.266354 l 0,1.620324"
         style="font-size:45.45785522px;font-variant:normal;font-stretch:normal;text-align:start;line-height:125%;writing-mode:lr-tb;text-anchor:start;font-family:Georgia;-inkscape-font-specification:Georgia"
         id="path2889" />
      <path
         d="m 127.11612,82.36504 c -0.6955,0.251557 -1.3096,0.451323 -1.84229,0.599298 -0.51793,0.162772 -1.10983,0.244158 -1.77569,0.244158 -1.15422,0 -2.07907,-0.266354 -2.77453,-0.799064 -0.6807,-0.547505 -1.11723,-1.33917 -1.30958,-2.374995 l -0.13318,0 c -0.96184,1.06542 -1.99767,1.879281 -3.10747,2.441584 -1.09502,0.562304 -2.41939,0.843456 -3.97312,0.843456 -1.64252,0 -2.99649,-0.503114 -4.06191,-1.509342 -1.05062,-1.006227 -1.57593,-2.323201 -1.57593,-3.950927 0,-0.843451 0.11838,-1.598122 0.35514,-2.264015 0.23676,-0.665878 0.5919,-1.265176 1.06542,-1.797893 0.36993,-0.443915 0.85825,-0.836048 1.46495,-1.1764 0.60669,-0.355129 1.17639,-0.636281 1.70911,-0.843456 0.66588,-0.251546 2.01245,-0.717666 4.03971,-1.398362 2.04204,-0.680671 3.4182,-1.21338 4.1285,-1.598128 l 0,-2.197425 c -2e-5,-0.192351 -0.0444,-0.562288 -0.13318,-1.109811 -0.074,-0.547489 -0.24417,-1.0654 -0.51051,-1.553735 -0.29597,-0.547488 -0.71769,-1.021007 -1.26519,-1.420558 -0.53272,-0.414309 -1.29479,-0.621474 -2.28621,-0.621495 -0.68069,2.1e-5 -1.31698,0.118401 -1.90887,0.35514 -0.57711,0.221982 -0.98404,0.458742 -1.22079,0.710279 -1e-5,0.295969 0.0666,0.732494 0.19976,1.309577 0.14797,0.577119 0.22196,1.109828 0.22196,1.598128 0,0.517928 -0.23676,0.991447 -0.71028,1.420558 -0.45872,0.429141 -1.10241,0.643705 -1.93107,0.64369 -0.73987,1.5e-5 -1.28738,-0.258941 -1.64252,-0.776868 -0.34034,-0.532693 -0.51051,-1.124591 -0.51051,-1.775697 0,-0.680666 0.23676,-1.331755 0.71028,-1.953267 0.48831,-0.621475 1.1172,-1.17638 1.88668,-1.664717 0.66588,-0.414308 1.47234,-0.762048 2.41939,-1.043222 0.94703,-0.295927 1.87187,-0.443902 2.77452,-0.443924 1.24298,2.2e-5 2.32319,0.08881 3.24065,0.266354 0.93223,0.162794 1.77568,0.525332 2.53037,1.087615 0.75465,0.547527 1.32436,1.294799 1.70911,2.241818 0.39951,0.932259 0.59928,2.138252 0.5993,3.617983 -2e-5,2.116053 -0.0222,3.995331 -0.0666,5.63784 -0.0444,1.627731 -0.0666,3.410825 -0.0666,5.349289 -2e-5,0.577105 0.0962,1.035826 0.28855,1.376165 0.20715,0.340345 0.51789,0.628895 0.93224,0.865653 0.22194,0.133179 0.56968,0.207166 1.04322,0.221962 0.4883,0.0148 0.98401,0.0222 1.48715,0.0222 l 0,1.420558 m -7.74648,-11.719603 c -1.2578,0.369948 -2.36021,0.732486 -3.30724,1.087614 -0.94705,0.355151 -1.8275,0.799074 -2.64135,1.331774 -0.73988,0.503123 -1.32438,1.10242 -1.7535,1.797893 -0.42913,0.680691 -0.64369,1.494552 -0.64369,2.441584 0,1.228195 0.31814,2.130841 0.95444,2.707939 0.65108,0.577104 1.47234,0.865654 2.46378,0.865652 1.05061,2e-6 1.97545,-0.251555 2.77453,-0.754671 0.79905,-0.517909 1.47233,-1.124605 2.01985,-1.82009 l 0.13318,-7.657695"
         style="font-size:45.45785522px;font-variant:normal;font-stretch:normal;text-align:start;line-height:125%;writing-mode:lr-tb;text-anchor:start;font-family:Georgia;-inkscape-font-specification:Georgia"
         id="path2891" />
      <path
         d="m 153.46303,82.764572 -10.72077,0 0,-1.46495 c 0.34032,-0.02959 0.71026,-0.05919 1.10981,-0.08879 0.41431,-0.02959 0.75465,-0.08878 1.02103,-0.17757 0.41431,-0.133176 0.71765,-0.362536 0.91004,-0.688083 0.20715,-0.340339 0.31073,-0.776864 0.31075,-1.309577 l 0,-11.253482 c -2e-5,-1.553719 -0.36996,-2.752314 -1.10981,-3.595788 -0.7251,-0.843437 -1.61294,-1.265164 -2.66355,-1.265184 -0.78428,2e-5 -1.50196,0.125798 -2.15303,0.377335 -0.6511,0.236779 -1.22821,0.532729 -1.73131,0.887849 -0.48833,0.34036 -0.88046,0.710297 -1.1764,1.109811 -0.28116,0.384752 -0.48832,0.695498 -0.62149,0.932241 l 0,12.585256 c -10e-6,0.503118 0.10357,0.917447 0.31075,1.242988 0.20715,0.325547 0.5179,0.577104 0.93224,0.754672 0.31073,0.147976 0.64368,0.258957 0.99883,0.332943 0.36992,0.07399 0.74726,0.12578 1.132,0.155374 l 0,1.46495 -10.72077,0 0,-1.46495 c 0.34034,-0.02959 0.68808,-0.05919 1.04322,-0.08879 0.36994,-0.02959 0.68808,-0.08878 0.95444,-0.17757 0.41432,-0.133176 0.71767,-0.362536 0.91004,-0.688083 0.20716,-0.340339 0.31075,-0.776864 0.31075,-1.309577 l 0,-13.517497 c 0,-0.503096 -0.11098,-0.961818 -0.33294,-1.376165 -0.20717,-0.429108 -0.50312,-0.776849 -0.88785,-1.043223 -0.28116,-0.177549 -0.6141,-0.303328 -0.99883,-0.377335 -0.38474,-0.08877 -0.79907,-0.147955 -1.24299,-0.17757 l 0,-1.442754 7.28036,-0.488317 0.31075,0.310747 0,3.085274 0.11098,0 c 0.35513,-0.35512 0.79905,-0.776848 1.33177,-1.265184 0.5327,-0.503094 1.03581,-0.910024 1.50935,-1.220792 0.54749,-0.355118 1.19858,-0.651067 1.95326,-0.887849 0.75466,-0.236737 1.60551,-0.355117 2.55257,-0.355139 2.10122,2.2e-5 3.65495,0.658509 4.6612,1.975463 1.02101,1.302198 1.53152,3.0409 1.53154,5.216111 l 0,11.386661 c -2e-5,0.517915 0.0888,0.939642 0.26636,1.265184 0.17754,0.310749 0.48089,0.554907 0.91004,0.732475 0.35512,0.147977 0.65847,0.251559 0.91005,0.310747 0.26633,0.05919 0.62886,0.103584 1.08761,0.133178 l 0,1.46495"
         style="font-size:45.45785522px;font-variant:normal;font-stretch:normal;text-align:start;line-height:125%;writing-mode:lr-tb;text-anchor:start;font-family:Georgia;-inkscape-font-specification:Georgia"
         id="path2893" />
    </g>
  </g>
</svg>
